inDegrees=no
num_controls=7
num_derivatives=13
num_iterations=119
num_multipliers=7
num_parameters=0
num_slacks=7
num_states=26
objective=0.445667
objective_accelerations=0.057533
objective_balance=0.003546
objective_effort=0.022913
objective_height=0.356136
objective_ligament=0.005539
solver_duration=1660.186112
status=Solve_Succeeded
success=true
DataType=double
version=3
OpenSimVersion=4.5
endheader
time	/jointset/ground_pelvis/pelvis_tilt/value	/jointset/ground_pelvis/pelvis_tx/value	/jointset/ground_pelvis/pelvis_ty/value	/jointset/hip_l/hip_flexion_l/value	/jointset/hip_l/hip_adduction_l/value	/jointset/hip_l/hip_rotation_l/value	/jointset/back/lumbar_extension/value	/jointset/patellofemoral_l/patellar_flexion_l/value	/jointset/knee_l/knee_flexion_l/value	/jointset/knee_l/knee_adduction_l/value	/jointset/knee_l/knee_rotation_l/value	/jointset/ankle_l/ankle_angle_l/value	/jointset/subtalar_l/subtalar_angle_l/value	/jointset/ground_pelvis/pelvis_tilt/speed	/jointset/ground_pelvis/pelvis_tx/speed	/jointset/ground_pelvis/pelvis_ty/speed	/jointset/hip_l/hip_flexion_l/speed	/jointset/hip_l/hip_adduction_l/speed	/jointset/hip_l/hip_rotation_l/speed	/jointset/back/lumbar_extension/speed	/jointset/patellofemoral_l/patellar_flexion_l/speed	/jointset/knee_l/knee_flexion_l/speed	/jointset/knee_l/knee_adduction_l/speed	/jointset/knee_l/knee_rotation_l/speed	/jointset/ankle_l/ankle_angle_l/speed	/jointset/subtalar_l/subtalar_angle_l/speed	/forceset/tau_hip_flexion_l	/forceset/tau_hip_adduction_l	/forceset/tau_hip_rotation_l	/forceset/tau_knee_flexion_l	/forceset/tau_ankle_angle_l	/forceset/tau_subtalar_angle_l	/forceset/tau_lumbar_extension	lambda_cid13_p0	lambda_cid13_p1	lambda_cid13_p2	lambda_cid13_p3	lambda_cid13_p4	lambda_cid13_p5	lambda_cid14_p0	/jointset/ground_pelvis/pelvis_tilt/accel	/jointset/ground_pelvis/pelvis_tx/accel	/jointset/ground_pelvis/pelvis_ty/accel	/jointset/hip_l/hip_flexion_l/accel	/jointset/hip_l/hip_adduction_l/accel	/jointset/hip_l/hip_rotation_l/accel	/jointset/back/lumbar_extension/accel	/jointset/patellofemoral_l/patellar_flexion_l/accel	/jointset/knee_l/knee_flexion_l/accel	/jointset/knee_l/knee_adduction_l/accel	/jointset/knee_l/knee_rotation_l/accel	/jointset/ankle_l/ankle_angle_l/accel	/jointset/subtalar_l/subtalar_angle_l/accel	gamma_cid13_p0	gamma_cid13_p1	gamma_cid13_p2	gamma_cid13_p3	gamma_cid13_p4	gamma_cid13_p5	gamma_cid14_p0
0.5	-0.3405569246957375	-0.03958951134941033	0.7598512193298801	1.100936827857401	-0.4364811601872866	-0.2237370523184094	-0.2543560124357203	0.8063209353690737	0.8063209353691023	-0.1270873384026516	-0.1593161166370938	0.1056313026978761	-0.03335641928188662	-0.770120870508421	-0.2166355139922188	-0.5318481199431657	2.477659310690134	-0.2054577201792634	0.7469777280763128	-0.1157455692680648	1.987137622399111	1.987137622399028	0.1303551628858156	-0.08458387837335231	0.4518064931567506	-0.004422182307220142	-0.1694419630195753	0.01841756536703262	-0.01136670012496994	-0.2193074844393461	0.06892473278673389	0.04508689010877391	0.1675857662967543	-10.64374629830506	-20.86665551287928	6.587784559239965	-6.85873060269001	-522.5147128264775	-63.79125562656069	-25.19691920867345	0.7966865897787204	0.6147618055517144	-0.4569066434588455	-1.372656192569594	0.73875155835879	-0.2056989740829569	1.087625532549781	-1.267977147011523	-1.267977147011528	0.06986693883661194	0.1803245636863244	-0.4919866273504412	0.5489527197445189	-5.459489879923182e-07	-4.232337583012811e-07	2.713388981765069e-06	1.436035822501196e-07	-6.136653728165009e-07	3.895662270236171e-08	-4.447943633160425e-07
0.51	-0.3482164436142653	-0.04172487055432278	0.7545110615967576	1.125639997938584	-0.4384999063912984	-0.2162764629699428	-0.2554602749293923	0.8261258510300199	0.8261258510300455	-0.1257844576275577	-0.1601524913707619	0.1101235861673894	-0.03337505092204249	-0.7616707688560497	-0.2104179052193492	-0.5360690440770434	2.462635055476476	-0.1982752129441611	0.7450337768674576	-0.1051503547251238	1.973581598713174	1.973581598713102	0.1302218487135169	-0.08268786130681474	0.4465778692367968	0.0006859816327241436	-0.1748895135720764	0.01910216997469417	-0.01143678672182246	-0.2220749197653403	0.06848911589067395	0.04544633021415505	0.1717431986401485	-10.98356985313395	-20.94327914030048	6.577176968500697	-6.789623187333056	-526.1123532597263	-63.44388478450453	-24.28137951860274	0.8859258695587305	0.6280546296581457	-0.3876484245284563	-1.618337090174709	0.7101374730693568	-0.2050835951582354	1.038955626320289	-1.438913064225519	-1.438913064223906	-0.05475831150266956	0.195273539836856	-0.5491445644639672	0.4900071427587904	-5.335725440381857e-07	-3.370319192783274e-07	2.749868286463312e-06	1.624081524091225e-07	-5.907135542239024e-07	1.098363800459394e-07	-4.388025731767386e-07
0.52	-0.3557881107329498	-0.04379749482820586	0.7491321019970612	1.15018272008675	-0.4404464000895625	-0.2088385812137379	-0.2564598880354028	0.8457873068371393	0.8457873068371599	-0.124482875537438	-0.160969699281421	0.1145614145396745	-0.03334294914047101	-0.7525505105399863	-0.2040885277863439	-0.5396084932579601	2.445569724086381	-0.1910072190297241	0.7424362096237462	-0.09481569173602139	1.958445651633607	1.958445651633546	0.1300954258916371	-0.08075051377230197	0.4409154737109992	0.005724502038245049	-0.1803370641245582	0.01978677458236164	-0.01150687331871748	-0.2248423550913291	0.0680534989946157	0.04580577031954516	0.1759006309835592	-11.32675720343187	-21.02007460931118	6.56746756872386	-6.754395347468885	-529.7904318633008	-63.15554822393462	-23.36705875365673	0.9307179225170933	0.637115537578857	-0.3206116528667126	-1.780871427857313	0.7558488942257451	-0.3364221810542143	1.035515221782072	-1.583961825737616	-1.583961825737617	0.07124520892042127	0.1885906572813581	-0.5787409485191918	0.5350240128598402	-5.176859323252144e-07	-2.629215264432415e-07	2.757722479672993e-06	1.77871994779033e-07	-5.667302429695205e-07	1.7959282708833e-07	-4.305574339098476e-07
0.53	-0.3632654400409785	-0.04580636944374377	0.7437211654907235	1.174544976780001	-0.442319801657527	-0.201429652768628	-0.2573574748649091	0.8652896760583464	0.8652896760583639	-0.1231826128043333	-0.161767197926336	0.1189404881811026	-0.03326081733200054	-0.7428138627926282	-0.1976774522394592	-0.5424620375107669	2.426559387669115	-0.1836651435878531	0.7392475002610316	-0.08475811904444083	1.941773440387862	1.941773440387913	0.1299497048599005	-0.07874586968094048	0.4348265223338765	0.01068210256597371	-0.1856859958577149	0.0203170873257713	-0.01151536977737264	-0.2275708906696176	0.06746861447734864	0.04603214105631493	0.1799272760487638	-11.71993563335734	-21.02482587309495	6.539989292982407	-6.571478613158225	-533.4131436918783	-62.79193666571243	-22.4554794341505	1.010293719709469	0.6444822243866384	-0.2503210632626504	-2.009527626476459	0.7242489275730726	-0.3257577626684787	0.9824115609414434	-1.746978361638704	-1.7469783616217	-0.05853704235357322	0.2074587543079619	-0.6348676932288944	0.4728780509275449	-5.004569181194623e-07	-1.684019171001916e-07	2.778790456631525e-06	2.014901871050854e-07	-5.458988101331104e-07	2.507818158334619e-07	-4.196108114455366e-07
0.54	-0.3706423717677594	-0.0477508575715842	0.7382851744915029	1.19870744753352	-0.4441196100593913	-0.1940557439069023	-0.2581561793138787	0.8846176976495669	0.8846176976495804	-0.1218840185381744	-0.162544438636487	0.1232564932165759	-0.03312975952261316	-0.7324709942907006	-0.1912112302468461	-0.5446193918345609	2.405612536139238	-0.176288585809772	0.7354322929467827	-0.07503921562904421	1.92357612563629	1.923576125636455	0.1297617325028502	-0.07669892681980216	0.4283017525199511	0.01550970222162931	-0.1910349275908372	0.02084740006918746	-0.01152386623605282	-0.2302994262479025	0.06688372996008127	0.04625851179309248	0.1839539211140004	-12.11696688132156	-21.02948365509006	6.513161655076632	-6.419200998237147	-537.1227111412288	-62.48749889212399	-21.54930747829169	1.051962073430978	0.6481448267245299	-0.181373667064116	-2.168174450379469	0.7627453614677524	-0.4617217713610652	0.967781366545285	-1.888982526902932	-1.888982526902931	0.0627949438576772	0.1970504112367225	-0.6659046358797307	0.5090238384452255	-4.817426926451012e-07	-5.13018980036492e-08	2.814477939014318e-06	2.34130213425167e-07	-5.285545619293503e-07	3.235557443348181e-07	-4.05675313954293e-07
